<svg width="1051" height="367" xmlns="http://www.w3.org/2000/svg" xmlns:xlink="http://www.w3.org/1999/xlink" xml:space="preserve" overflow="hidden"><g transform="translate(-1035 -1096)"><path d="M1999.16 1324.75C2005.99 1324.25 2010.75 1325.04 2013.53 1327.03 2016.3 1329.01 2017.66 1331.51 2017.66 1334.48 2017.66 1337.23 2016.7 1341.32 2014.71 1346.75 2012.7 1352.2 2010.73 1356.61 2008.61 1359.88 2003.81 1367.64 1997.19 1374.31 1988.51 1379.73 1979.8 1385.17 1971.41 1388.7 1963.24 1389.97 1957.18 1390.91 1952.76 1390.05 1949.98 1387.42 1947.2 1384.77 1945.83 1381.4 1945.83 1377.38 1945.83 1373.12 1947.37 1367.48 1950.58 1360.55 1953.77 1353.67 1957.01 1348.05 1960.47 1343.82 1965.25 1338.12 1971.25 1333.52 1978.65 1330.29 1986.03 1327.07 1992.85 1325.21 1999.16 1324.75ZM1371.26 1228.48C1366.98 1228.6 1361.72 1231.93 1355.41 1238.36 1349.12 1244.77 1343.08 1253.03 1337.16 1263.05 1331.27 1273 1326.38 1283.73 1322.34 1295.19 1318.32 1306.59 1316.33 1317.57 1316.33 1328.19 1316.33 1336.08 1317.59 1341.86 1320.14 1345.52 1322.68 1349.18 1326.21 1351.15 1330.75 1351.37 1334.76 1351.56 1339.77 1349.8 1345.78 1346.04 1351.81 1342.27 1358.42 1337.25 1365.64 1331.03 1372.9 1324.78 1380.1 1317.92 1387.33 1310.53 1390.96 1306.82 1394.42 1303.17 1397.78 1299.6 1398.46 1298.87 1399.13 1298.13 1399.81 1297.39 1399.07 1297.68 1398.32 1297.97 1397.58 1298.26 1388.34 1301.45 1379.83 1302.98 1372.06 1302.88 1367.25 1302.82 1364.91 1301.17 1365.04 1297.95 1365.17 1294.72 1366.17 1291.42 1368.05 1288.06 1371.55 1281.04 1374.33 1273.77 1376.48 1266.28 1378.63 1258.77 1379.7 1251.89 1379.7 1245.66 1379.7 1240.29 1379.03 1236.05 1377.69 1232.97 1376.34 1229.9 1374.21 1228.4 1371.26 1228.48ZM1900.19 1213.26C1909.99 1213.96 1917.22 1217.63 1922.04 1224.02 1926.83 1230.36 1929.18 1236.8 1929.18 1243.32 1929.18 1245.98 1928.86 1249.35 1928.19 1253.43 1927.52 1257.52 1926.42 1263.07 1924.82 1270.07 1920.77 1287.81 1917.44 1304.16 1914.5 1318.98 1911.53 1333.9 1908.29 1348.47 1904.56 1362.67 1901.88 1373.13 1897.48 1382.18 1891.24 1389.8 1884.96 1397.46 1874.99 1402.27 1861.16 1403.88 1852.65 1404.86 1846.39 1404.04 1842.4 1401.43 1838.39 1398.82 1835.81 1395.01 1834.61 1390.08 1833.41 1385.13 1832.81 1379.86 1832.81 1374.26 1832.81 1362.81 1833.99 1350.29 1836.41 1336.74 1838.82 1323.25 1841.89 1309.77 1845.79 1296.38 1849.68 1283.07 1853.66 1270.86 1857.97 1259.84 1862.25 1248.9 1866.04 1240.12 1869.53 1233.57 1873.27 1227.07 1877.47 1221.87 1882.28 1218.11 1887.07 1214.37 1893.03 1212.75 1900.19 1213.26ZM1392.15 1196.76C1402.6 1196.35 1412.39 1197.65 1421.51 1200.68 1430.64 1203.72 1438.08 1208.48 1443.84 1214.89 1449.63 1221.31 1452.5 1229.36 1452.5 1238.98 1452.5 1247.73 1449.83 1255.99 1444.45 1263.73 1443.68 1264.73 1442.92 1265.74 1442.15 1266.74 1443.18 1266.68 1444.22 1266.62 1445.25 1266.56 1451.16 1266.53 1455.32 1267.25 1457.74 1268.7 1460.16 1270.15 1461.36 1273.66 1461.36 1279.21 1461.36 1280.67 1461.16 1284.25 1460.76 1289.95 1460.35 1295.64 1459.95 1302.36 1459.55 1310.1 1459.15 1317.84 1458.95 1325.65 1458.95 1333.53 1458.95 1347.84 1459.55 1359.03 1460.76 1367.09 1461.97 1375.15 1463.24 1381.26 1464.58 1385.39 1465.66 1388.93 1466.2 1391.14 1466.2 1392.02 1466.2 1395.53 1463.52 1399.55 1458.14 1404.03 1452.77 1408.51 1446.47 1412.34 1439.21 1415.49 1431.97 1418.64 1425.4 1420.03 1419.49 1419.7 1410.11 1419.18 1403.01 1415.94 1398.18 1410.08 1393.36 1404.23 1390.15 1396.99 1388.53 1388.37 1386.93 1379.77 1386.12 1370.92 1386.12 1361.84 1386.12 1359.85 1386.32 1356.52 1386.73 1351.85 1386.85 1350.42 1386.96 1349 1387.08 1347.57 1384.07 1350.9 1381.06 1354.22 1378.04 1357.52 1371.45 1364.61 1365.13 1371.2 1359.02 1377.22 1346.88 1389.18 1335.33 1398.27 1324.34 1404.43 1313.42 1410.56 1302.32 1412.95 1291.13 1411.75 1281.8 1410.74 1273.37 1407.24 1265.77 1401.44 1258.19 1395.66 1252.24 1388.59 1247.82 1380.31 1243.43 1372.08 1241.25 1363.64 1241.25 1354.96 1241.25 1342.46 1244.01 1329.51 1249.62 1316.04 1255.28 1302.43 1262.9 1288.88 1272.75 1275.44 1282.72 1261.85 1293.93 1249.16 1306.72 1237.64 1319.62 1226.03 1333.22 1216.34 1347.79 1208.94 1362.39 1201.52 1377.15 1197.34 1392.15 1196.76ZM1606.76 1192.38C1617.78 1192.51 1627.53 1194.95 1635.99 1199.64 1644.45 1204.33 1651.16 1210.53 1656.14 1218.22 1661.11 1225.9 1663.59 1234.26 1663.59 1243.3 1663.59 1252.65 1661.11 1261.98 1656.14 1271.31 1651.16 1280.67 1644.79 1288.45 1637 1294.64 1629.2 1300.84 1621.28 1303.97 1613.22 1304 1609.72 1304.01 1606.63 1303.21 1603.94 1301.59 1601.25 1299.97 1599.91 1297.69 1599.91 1294.73 1599.91 1291.48 1600.98 1286.01 1603.14 1278.33 1605.29 1270.65 1606.36 1260.75 1606.36 1248.64 1606.36 1240.96 1605.49 1234.68 1603.74 1229.8 1601.99 1224.91 1599.78 1222.46 1597.09 1222.45 1593.86 1222.43 1589.89 1225.74 1585.19 1232.38 1580.48 1239.03 1576.25 1247.16 1572.49 1256.78 1568.72 1266.4 1566.84 1275.66 1566.84 1284.54 1566.84 1292.84 1569.73 1298.84 1575.51 1302.53 1581.29 1306.23 1591.57 1309.99 1606.36 1313.77 1624.9 1318.41 1638.6 1323.58 1647.47 1329.34 1656.33 1335.09 1660.77 1344.36 1660.77 1357.21 1660.77 1369.77 1657.01 1382.29 1649.49 1394.8 1641.96 1407.33 1632.17 1418.71 1620.07 1428.88 1607.98 1439.04 1594.88 1447.22 1580.76 1453.28 1566.66 1459.33 1552.86 1462.29 1539.42 1462.15 1522.21 1461.97 1509.1 1458.22 1500.1 1451.19 1491.1 1444.15 1486.6 1435.18 1486.6 1424.3 1486.6 1414.89 1489.49 1405.93 1495.27 1397.37 1501.05 1388.8 1508.44 1381.85 1517.44 1376.49 1526.45 1371.12 1535.65 1368.45 1545.06 1368.49 1546.68 1368.49 1548.49 1368.72 1550.51 1369.17 1552.52 1369.62 1553.53 1371.03 1553.53 1373.4 1553.53 1375.18 1552.66 1377.91 1550.91 1381.61 1549.16 1385.31 1547.35 1389.82 1545.47 1395.14 1543.58 1400.46 1542.64 1406.52 1542.64 1413.33 1542.64 1423.99 1546 1429.35 1552.73 1429.37 1555.95 1429.38 1559.85 1427.69 1564.42 1424.27 1568.99 1420.86 1573.09 1416.1 1576.72 1410.01 1580.35 1403.92 1582.17 1397.02 1582.17 1389.33 1582.17 1380.15 1579.07 1373.51 1572.89 1369.39 1566.7 1365.26 1555.14 1360.54 1538.21 1355.14 1525.03 1350.64 1514.15 1344.63 1505.55 1337.18 1496.95 1329.73 1492.65 1319.83 1492.65 1307.47 1492.65 1293.63 1496.08 1279.95 1502.93 1266.39 1509.79 1252.8 1518.78 1240.36 1529.94 1229.07 1541.1 1217.78 1553.39 1208.78 1566.84 1202.13 1580.28 1195.49 1593.59 1192.24 1606.76 1192.38ZM1812.02 1122.05C1816.55 1122.58 1820.48 1124.28 1823.82 1127.09 1827.15 1129.9 1828.82 1133.58 1828.82 1138.12 1828.82 1139.99 1828.29 1142.67 1827.22 1146.16 1826.15 1149.66 1824.02 1154.74 1820.82 1161.42 1815.45 1172.53 1809.89 1185.66 1804.01 1200.77 1803.57 1201.98 1803.13 1203.19 1802.69 1204.4 1804.1 1204.62 1805.51 1204.84 1806.92 1205.06 1811.92 1205.91 1816.02 1206.73 1819.22 1207.51 1825.62 1209.07 1829.74 1210.85 1831.62 1212.81 1833.49 1214.77 1834.41 1217.62 1834.41 1221.34 1834.41 1229.32 1831.96 1236.69 1827.02 1243.47 1822.04 1250.29 1816.15 1254.64 1809.22 1256.41 1805.75 1257.16 1801.81 1257.86 1797.4 1258.47 1795.2 1258.78 1792.75 1259.11 1790.04 1259.45 1788.1 1259.68 1786.15 1259.92 1784.21 1260.16 1784.12 1260.44 1784.04 1260.73 1783.96 1261.02 1780.47 1273.29 1777.58 1285.13 1775.16 1296.48 1771.93 1311.67 1770.35 1324.59 1770.35 1335.17 1770.35 1347.7 1772.87 1356.44 1777.97 1361.3 1783.05 1366.14 1789.86 1368.3 1798.4 1367.77 1801.88 1367.56 1804.41 1367.53 1806.01 1367.7 1807.62 1367.87 1808.42 1368.77 1808.42 1370.39 1808.42 1373.65 1805.68 1378.6 1800.21 1385.27 1794.71 1391.96 1787.19 1398.35 1777.57 1404.36 1767.93 1410.38 1756.84 1413.95 1744.26 1414.84 1729.53 1415.89 1717.65 1411.47 1708.69 1401.62 1699.67 1391.71 1695.21 1377.43 1695.21 1358.94 1695.21 1348.54 1696.74 1335.79 1699.84 1320.73 1702.93 1305.71 1706.99 1289.7 1712.11 1272.75 1713.41 1268.67 1714.7 1264.59 1716.01 1260.52 1715.59 1260.5 1715.18 1260.48 1714.77 1260.46 1708.84 1259.91 1704.87 1258.59 1702.86 1256.53 1700.17 1253.77 1698.83 1249.78 1698.83 1244.59 1698.83 1233.05 1702.76 1223.01 1710.7 1214.61 1716.63 1208.33 1725 1203.75 1735.84 1200.98 1736.46 1200.86 1737.09 1200.74 1737.72 1200.62 1738.08 1199.75 1738.43 1198.88 1738.79 1198.01 1742.04 1190.3 1745.32 1182.89 1748.68 1175.81 1755.36 1161.72 1761.76 1149.89 1767.94 1140.33 1772.22 1134.01 1778.89 1129.11 1787.99 1125.76 1797.06 1122.43 1805.08 1121.24 1812.02 1122.05ZM2069.41 1164.32C2080.1 1166.93 2085.43 1170.81 2085.43 1175.81 2085.43 1177.29 2084.98 1179.08 2084.06 1181.2 2083.14 1183.32 2081.79 1185.97 2079.96 1189.15 2074.38 1199.38 2068.75 1210.33 2062.57 1221.77 2056.26 1233.46 2050.51 1244.97 2044.56 1255.84 2038.49 1266.91 2033.17 1276.71 2027.88 1284.77 2024.93 1289.36 2020.7 1293.9 2014.9 1298.16 2009.07 1302.45 2003.18 1306.18 1996.99 1308.94 1990.78 1311.72 1985.36 1313.35 1980.63 1313.6 1976.68 1313.8 1973.26 1312.99 1970.35 1311.21 1967.44 1309.43 1966.01 1306.53 1966.01 1302.62 1966.01 1299.63 1967.01 1293.79 1969.17 1285.17 1971.31 1276.6 1973.9 1266.58 1977.27 1255.24 1980.61 1244 1984.15 1232.68 1988.32 1221.43 1992.44 1210.32 1996.46 1200.24 2000.74 1191.31 2004.96 1182.51 2008.71 1176.03 2012.15 1171.94 2015.56 1168.09 2020.53 1165.25 2027.09 1163.6 2033.63 1161.95 2040.77 1161.27 2048.47 1161.54 2056.18 1161.82 2063.16 1162.79 2069.41 1164.32ZM1092.9 1151.45C1096.31 1150.67 1102.79 1149.28 1112.37 1147.38 1121.94 1145.48 1133.05 1143.37 1145.68 1141.15 1158.32 1138.93 1171.05 1136.87 1183.86 1135.01 1196.69 1133.15 1208.2 1131.6 1218.41 1130.3 1228.61 1128.99 1235.98 1128.3 1240.49 1128.12 1250.05 1127.43 1257.03 1127.85 1261.42 1129.32 1265.81 1130.8 1268 1134.31 1268 1139.81 1268 1146.88 1266.23 1154.09 1262.61 1161.39 1259.02 1168.66 1254.04 1173.13 1247.66 1174.8 1237.3 1177.38 1225.03 1180.16 1210.85 1183.05 1203.76 1184.49 1196.53 1185.94 1189.12 1187.35 1188.55 1187.45 1187.97 1187.56 1187.4 1187.66 1187.81 1188.04 1188.21 1188.42 1188.62 1188.8 1191.16 1191.76 1192.39 1194.12 1192.39 1195.81 1192.39 1197.5 1192.07 1199.71 1191.4 1202.43 1190.73 1205.14 1189.51 1209.36 1187.63 1215.04 1183.1 1229.24 1178.81 1244.58 1174.36 1260.93 1169.95 1277.1 1165.75 1292.79 1161.29 1307.88 1156.89 1322.79 1152.62 1336.03 1148.05 1347.47 1144.86 1355.53 1141.89 1361.09 1138.97 1364.07 1136.06 1367.04 1131.63 1369.84 1125.56 1372.22 1111.69 1377.97 1098.92 1379.52 1087.41 1377.43 1079.55 1376.01 1073.33 1373.02 1068.59 1368.72 1063.87 1364.45 1061.54 1359.17 1061.54 1352.9 1061.54 1350.75 1061.98 1347.87 1062.91 1344.27 1063.84 1340.66 1065.66 1334.75 1068.59 1326.54 1071.54 1318.65 1075.23 1309.07 1080.14 1297.9 1085.13 1286.54 1090.27 1274.29 1096.24 1261.4 1102.31 1248.29 1107.92 1235.42 1113.74 1223.15 1116.69 1216.95 1119.36 1211.12 1122.01 1205.81 1123.21 1203.48 1124.36 1201.11 1125.55 1198.76 1124.24 1198.99 1122.93 1199.23 1121.62 1199.47 1107.18 1201.95 1094.34 1204.19 1083.09 1206.02 1071.84 1207.85 1063.49 1209.21 1058.01 1209.99 1050.45 1211.06 1044.82 1210.59 1041.01 1208.68 1037.23 1206.78 1035.35 1203.97 1035.35 1200.27 1035.35 1196.56 1037.1 1192.37 1040.62 1187.66 1044.18 1182.92 1048.76 1178.05 1054.49 1173.14 1060.26 1168.19 1066.44 1163.68 1073.09 1159.73 1079.76 1155.77 1086.36 1152.96 1092.9 1151.45ZM1923.63 1128.6C1930.77 1129.89 1936.25 1132.73 1940.08 1137 1943.91 1141.26 1945.83 1146.09 1945.83 1151.53 1945.83 1159.57 1944.26 1167.14 1941.07 1174.28 1937.87 1181.48 1933.48 1187.26 1927.79 1191.57 1922.06 1195.9 1915.69 1197.83 1908.54 1197.17 1901.65 1196.53 1896.43 1193.86 1892.83 1189.14 1889.22 1184.4 1887.46 1179.45 1887.46 1174.39 1887.46 1166.8 1888.96 1159.2 1892.04 1151.65 1895.09 1144.16 1899.3 1138.06 1904.76 1133.47 1910.18 1128.91 1916.49 1127.3 1923.63 1128.6Z" fill="#FFFFFF" fill-rule="evenodd"/><text fill="#000000" fill-opacity="0" font-family="Arial,Arial_MSFontService,sans-serif" font-size="340.353" x="1035.35" y="1419.61">Tasti!</text></g></svg>